SplineFontDB: 3.0
FontName: MyGaramond
FullName: MyGaramond
FamilyName: MyGaramond
Weight: Regular
Copyright: Created by trashman with FontForge 2.0 (http://fontforge.sf.net)
UComments: "2010-10-15: Created." 
Version: 001.000
ItalicAngle: 0
UnderlinePosition: -100
UnderlineWidth: 50
Ascent: 725
Descent: 275
LayerCount: 3
Layer: 0 0 "Back"  1
Layer: 1 0 "Fore"  0
Layer: 2 0 "backup"  0
NeedsXUIDChange: 1
XUID: [1021 658 797806517 11800223]
OS2Version: 0
OS2_WeightWidthSlopeOnly: 0
OS2_UseTypoMetrics: 1
CreationTime: 1287179752
ModificationTime: 1287222071
OS2TypoAscent: 0
OS2TypoAOffset: 1
OS2TypoDescent: 0
OS2TypoDOffset: 1
OS2TypoLinegap: 0
OS2WinAscent: 0
OS2WinAOffset: 1
OS2WinDescent: 0
OS2WinDOffset: 1
HheadAscent: 0
HheadAOffset: 1
HheadDescent: 0
HheadDOffset: 1
OS2Vendor: 'PfEd'
MarkAttachClasses: 1
DEI: 91125
Encoding: UnicodeBmp
UnicodeInterp: none
NameList: Adobe Glyph List
DisplaySize: -48
AntiAlias: 1
FitToEm: 1
WinInfo: 48 12 4
BeginChars: 65536 63

StartChar: a
Encoding: 97 97 0
Width: 386
VWidth: 0
Flags: HW
LayerCount: 3
Fore
SplineSet
228 189 m 1
 191 177 129 146 110 128 c 0
 105 123 102 115 102 106 c 0
 102 80 121 45 137 45 c 0
 179 45 224 98 224 98 c 1
 228 189 l 1
152 355 m 0
 116 355 104 341 104 307 c 0
 104 288 104 292 94 286 c 2
 62 267 l 2
 57 264 52 260 47 260 c 0
 38 260 31 274 31 291 c 0
 31 307 40 326 52 336 c 0
 88 364 174 410 203 410 c 0
 236 410 309 383 309 322 c 0
 309 275 299 88 299 84 c 0
 299 72 305 62 317 57 c 0
 327 53 331 53 339 61 c 0
 345 67 352 76 357 83 c 1
 377 68 l 1
 360 39 336 13 313 0 c 0
 307 -4 306 -5 291 -5 c 0
 261 -5 230 11 228 57 c 0
 228 66 218 67 212 60 c 0
 181 22 148 -6 100 -6 c 0
 53 -6 27 28 27 87 c 0
 27 154 159 189 228 208 c 1
 229 230 231 253 231 276 c 0
 231 297 229 315 218 326 c 0
 205 338 181 355 152 355 c 0
EndSplineSet
EndChar

StartChar: b
Encoding: 98 98 1
Width: 490
VWidth: 0
Flags: HW
LayerCount: 3
Fore
SplineSet
172 370 m 0
 194 384 230 405 270 405 c 0
 367 405 460 324 460 222 c 0
 460 174 453 132 434 101 c 0
 411 64 388 45 358 27 c 0
 321 4 286 -9 240 -9 c 0
 183 -9 159 3 140 11 c 0
 130 16 123 20 116 20 c 0
 112 20 107 19 102 15 c 0
 89 6 87 -12 87 -12 c 1
 62 -12 l 1
 62 -12 67 54 67 105 c 2
 69 580 l 2
 69 618 39 616 16 617 c 1
 16 639 l 1
 69 657 114 682 133 699 c 1
 137 698 144 696 147 694 c 1
 147 694 143 629 143 620 c 0
 143 519 143 427 141 392 c 0
 141 384 140 378 140 373 c 0
 140 360 142 355 146 355 c 0
 151 355 159 361 172 370 c 0
148 328 m 0
 145 317 143 298 143 275 c 2
 143 211 l 2
 143 180 145 147 148 118 c 0
 154 64 208 32 250 32 c 0
 335 32 381 112 381 187 c 0
 381 265 326 359 238 359 c 0
 190 359 149 334 148 328 c 0
EndSplineSet
EndChar

StartChar: c
Encoding: 99 99 2
Width: 422
VWidth: 0
Flags: HW
LayerCount: 3
Fore
SplineSet
30 178 m 0
 30 220 41 261 60 296 c 0
 78 329 103 355 134 376 c 0
 165 397 206 413 250 413 c 0
 294 413 382 394 382 338 c 0
 382 310 354 297 336 297 c 0
 322 297 312 305 309 318 c 0
 307 327 301 337 296 346 c 0
 283 367 250 382 232 382 c 0
 159 382 108 300 108 220 c 0
 108 131 179 48 264 48 c 0
 327 48 385 104 385 104 c 1
 400 84 l 1
 346 18 269 -14 211 -14 c 0
 109 -14 30 75 30 178 c 0
EndSplineSet
EndChar

StartChar: d
Encoding: 100 100 3
Width: 494
VWidth: 0
Flags: HW
HStem: -14 51<174.809 270.797> 374 29<178.68 280.044> 633 21<279 321.417>
VStem: 25 84<113.223 268.723> 337 73<39.2173 41.2894 66.6258 323.702 386.003 625.875>
LayerCount: 3
Fore
SplineSet
337 41 m 0
 337 43 337 60 327 51 c 0
 293 22 254 -14 201 -14 c 0
 94 -14 25 84 25 176 c 0
 25 270 82 338 141 376 c 0
 167 393 199 403 239 403 c 0
 282 403 306 395 315 392 c 0
 324 389 331 386 335 386 c 0
 340 386 340 390 340 396 c 0
 340 403 339 431 339 434 c 0
 339 551 338 536 338 591 c 0
 338 630 311 628 279 633 c 1
 279 653 l 1
 316 660 349 671 404 704 c 0
 405 705 407 705 408 705 c 0
 412 705 416 703 416 700 c 0
 416 477 410 321 410 85 c 0
 410 61 412 39 432 39 c 0
 440 39 467 45 467 45 c 1
 467 42 468 38 468 34 c 0
 468 30 467 27 467 24 c 1
 431 13 391 3 355 -11 c 0
 352 -13 344 -14 342 -14 c 0
 336 -14 332 -9 332 -4 c 0
 332 2 337 29 337 41 c 0
163 348 m 0
 124 314 109 272 109 208 c 0
 109 119 161 37 235 37 c 0
 277 37 335 79 335 79 c 1
 335 266 l 2
 335 290 327 308 316 323 c 0
 295 352 276 373 232 373 c 0
 196 373 177 361 163 348 c 0
EndSplineSet
EndChar

StartChar: e
Encoding: 101 101 4
Width: 394
VWidth: 0
Flags: HW
HStem: -10 63<180.804 280.114> 236 27<109.439 274.564> 236 17<108 218.891> 376 32<162.848 249.502>
VStem: 28 77<130.716 233.602> 282 79<267.553 343.787>
LayerCount: 3
Fore
SplineSet
199 -10 m 0xbc
 98 -10 28 86 28 178 c 0
 28 273 79 351 151 390 c 0
 173 402 199 408 225 408 c 0
 276 408 330 373 346 330 c 0
 357 302 359 268 361 236 c 1
 106 236 l 1
 106 236 105 228 105 213 c 0
 105 102 200 53 246 53 c 0
 291 53 325 87 343 102 c 1
 350 100 359 90 360 85 c 1
 342 54 280 -10 199 -10 c 0xbc
108 253 m 1
 138 255 213 261 241 263 c 0xdc
 262 265 282 275 282 293 c 0
 282 329 264 352 242 366 c 0
 231 373 221 376 211 376 c 0
 204 376 198 375 189 373 c 0
 149 362 122 326 108 253 c 1
EndSplineSet
EndChar

StartChar: f
Encoding: 102 102 5
Width: 335
VWidth: 0
Flags: HW
HStem: -8 35<24 115.639 201.596 302> 349 43<31 122 197 324> 620 78<248.975 336.397>
VStem: 122 75<33.6379 349 392 544.055> 131 66<393.322 563.685>
LayerCount: 3
Fore
SplineSet
24 -4 m 1xf0
 24 22 l 1
 96 24 118 22 119 60 c 0
 121 170 122 349 122 349 c 1
 31 349 l 1
 31 397 l 1
 122 392 l 1xf0
 122 420 124 461 131 502 c 0xe8
 148 596 236 698 316 698 c 0
 324 698 363 693 363 651 c 0
 363 613 340 606 317 606 c 0
 296 606 272 620 257 620 c 0
 202 619 197 562 197 466 c 2
 197 392 l 1
 324 396 l 1
 324 348 l 1
 197 349 l 1
 197 282 l 2
 197 235 196 81 196 63 c 0
 196 24 220 26 302 22 c 1
 302 -4 l 1
 239 -4 195 0 161 0 c 0
 125 0 89 -4 24 -4 c 1xf0
EndSplineSet
Layer: 2
SplineSet
24 -7 m 5xf0
 24 28 l 5
 64 28 l 6
 104 28 119 33 119 60 c 4
 119 175 122 349 122 349 c 5
 31 349 l 5
 31 397 l 5
 122 392 l 5xf0
 122 420 124 461 131 502 c 4xe8
 148 596 236 698 316 698 c 4
 324 698 363 693 363 651 c 4
 363 613 340 606 317 606 c 4
 296 606 272 620 257 620 c 4
 202 619 197 562 197 466 c 6
 197 392 l 5
 324 396 l 5
 324 348 l 5
 197 349 l 5
 197 282 l 6
 197 235 196 81 196 63 c 4
 196 33 226 28 271 28 c 6
 302 28 l 5
 302 -7 l 5
 239 -7 195 0 161 0 c 4
 125 0 89 -7 24 -7 c 5xf0
EndSplineSet
EndChar

StartChar: g
Encoding: 103 103 6
Width: 466
VWidth: 0
Flags: HW
LayerCount: 3
Fore
SplineSet
112 -34 m 0
 94 -52 81 -78 81 -100 c 0
 81 -155 140 -198 202 -198 c 0
 269 -198 352 -167 352 -99 c 0
 352 -36 256 -21 187 -14 c 0
 178 -13 168 -12 161 -12 c 0
 140 -12 130 -16 112 -34 c 0
342 360 m 1
 454 360 l 1
 452 316 l 1
 371 315 l 1
 371 315 377 297 377 277 c 0
 377 196 305 136 209 136 c 0
 200 136 190 140 184 136 c 0
 166 125 145 112 145 100 c 0
 145 87 148 74 162 66 c 0
 174 59 200 55 220 54 c 0
 317 47 419 30 419 -62 c 0
 419 -167 306 -227 197 -227 c 0
 87 -227 11 -188 11 -108 c 0
 11 -53 77 -26 112 0 c 0
 115 3 113 9 109 11 c 0
 93 21 58 62 58 87 c 0
 58 94 74 102 93 112 c 0
 116 125 144 139 151 143 c 0
 157 146 150 153 145 155 c 0
 87 175 58 219 58 276 c 0
 58 350 140 401 221 401 c 0
 285 401 309 386 342 360 c 1
300 261 m 0
 300 320 265 372 218 372 c 0
 163 372 139 322 139 276 c 0
 139 227 162 164 209 164 c 0
 265 164 300 200 300 261 c 0
EndSplineSet
EndChar

StartChar: h
Encoding: 104 104 7
Width: 507
VWidth: 0
Flags: HW
HStem: -4 26<18 74.6992 171.33 223 294 348.85 437.137 488> 345 48<232.912 331.945> 636 25<31 74.0267>
VStem: 85 79<28.7154 313.854 333.77 538.719> 360 73<27.2197 317.19>
LayerCount: 3
Fore
SplineSet
164 287 m 2
 164 60 l 2
 164 30 180 22 223 22 c 1
 223 -4 l 1
 160 -4 161 0 127 0 c 0
 91 0 83 -4 18 -4 c 1
 18 22 l 1
 61 22 84 28 85 60 c 0
 88 175 91 219 91 321 c 0
 91 403 92 472 92 542 c 0
 92 577 90 603 84 620 c 0
 79 632 77 636 60 636 c 2
 31 636 l 1
 31 661 l 1
 83 674 120 687 168 713 c 1
 174 713 177 708 177 703 c 0
 177 691 173 679 172 664 c 0
 167 594 166 434 166 346 c 0
 166 330 174 329 181 334 c 0
 210 357 252 393 307 393 c 0
 373 393 432 346 432 270 c 0
 432 221 431 132 431 73 c 0
 431 36 435 22 488 22 c 1
 488 -4 l 1
 465 -4 431 0 397 0 c 0
 339 0 359 -4 294 -4 c 1
 294 22 l 1
 338 22 355 27 356 60 c 0
 359 178 360 179 360 263 c 0
 360 307 321 345 280 345 c 0
 228 345 204 326 181 311 c 0
 165 301 164 297 164 287 c 2
EndSplineSet
EndChar

StartChar: i
Encoding: 105 105 8
Width: 266
VWidth: 0
Flags: HWO
LayerCount: 3
Fore
SplineSet
43 326 m 1
 43 348 l 1
 92 358 132 366 166 388 c 0
 172 392 180 385 180 378 c 0
 181 353 181 325 181 296 c 0
 181 170 176 28 176 28 c 1
 241 22 l 1
 241 -4 l 1
 241 -4 169 0 135 0 c 0
 91 0 26 -4 26 -4 c 1
 26 22 l 1
 54 24 68 24 89 33 c 1
 89 33 96 62 96 80 c 0
 97 159 98 198 98 272 c 0
 98 314 82 326 63 326 c 2
 43 326 l 1
96 594 m 0
 96 621 117 642 144 642 c 0
 171 642 192 621 192 594 c 0
 192 567 171 545 144 545 c 0
 117 545 96 567 96 594 c 0
EndSplineSet
EndChar

StartChar: j
Encoding: 106 106 9
Width: 282
VWidth: 0
Flags: HW
LayerCount: 3
Fore
SplineSet
91 254 m 0
 91 282 113 304 141 304 c 0
 169 304 191 282 191 254 c 0
 191 226 169 204 141 204 c 0
 113 204 91 226 91 254 c 0
EndSplineSet
EndChar

StartChar: k
Encoding: 107 107 10
Width: 282
VWidth: 0
Flags: HW
LayerCount: 3
Fore
SplineSet
91 254 m 0
 91 282 113 304 141 304 c 0
 169 304 191 282 191 254 c 0
 191 226 169 204 141 204 c 0
 113 204 91 226 91 254 c 0
EndSplineSet
EndChar

StartChar: l
Encoding: 108 108 11
Width: 282
VWidth: 0
Flags: HW
LayerCount: 3
Fore
SplineSet
91 254 m 0
 91 282 113 304 141 304 c 0
 169 304 191 282 191 254 c 0
 191 226 169 204 141 204 c 0
 113 204 91 226 91 254 c 0
EndSplineSet
EndChar

StartChar: m
Encoding: 109 109 12
Width: 282
VWidth: 0
Flags: HW
LayerCount: 3
Fore
SplineSet
91 254 m 0
 91 282 113 304 141 304 c 0
 169 304 191 282 191 254 c 0
 191 226 169 204 141 204 c 0
 113 204 91 226 91 254 c 0
EndSplineSet
EndChar

StartChar: n
Encoding: 110 110 13
Width: 282
VWidth: 0
Flags: HW
LayerCount: 3
Fore
SplineSet
91 254 m 0
 91 282 113 304 141 304 c 0
 169 304 191 282 191 254 c 0
 191 226 169 204 141 204 c 0
 113 204 91 226 91 254 c 0
EndSplineSet
EndChar

StartChar: o
Encoding: 111 111 14
Width: 282
VWidth: 0
Flags: HW
LayerCount: 3
Fore
SplineSet
91 254 m 0
 91 282 113 304 141 304 c 0
 169 304 191 282 191 254 c 0
 191 226 169 204 141 204 c 0
 113 204 91 226 91 254 c 0
EndSplineSet
EndChar

StartChar: p
Encoding: 112 112 15
Width: 282
VWidth: 0
Flags: HW
LayerCount: 3
Fore
SplineSet
91 254 m 0
 91 282 113 304 141 304 c 0
 169 304 191 282 191 254 c 0
 191 226 169 204 141 204 c 0
 113 204 91 226 91 254 c 0
EndSplineSet
EndChar

StartChar: q
Encoding: 113 113 16
Width: 282
VWidth: 0
Flags: HW
LayerCount: 3
Fore
SplineSet
91 254 m 0
 91 282 113 304 141 304 c 0
 169 304 191 282 191 254 c 0
 191 226 169 204 141 204 c 0
 113 204 91 226 91 254 c 0
EndSplineSet
EndChar

StartChar: r
Encoding: 114 114 17
Width: 282
VWidth: 0
Flags: HW
LayerCount: 3
Fore
SplineSet
91 254 m 0
 91 282 113 304 141 304 c 0
 169 304 191 282 191 254 c 0
 191 226 169 204 141 204 c 0
 113 204 91 226 91 254 c 0
EndSplineSet
EndChar

StartChar: s
Encoding: 115 115 18
Width: 282
VWidth: 0
Flags: HW
LayerCount: 3
Fore
SplineSet
91 254 m 0
 91 282 113 304 141 304 c 0
 169 304 191 282 191 254 c 0
 191 226 169 204 141 204 c 0
 113 204 91 226 91 254 c 0
EndSplineSet
EndChar

StartChar: t
Encoding: 116 116 19
Width: 282
VWidth: 0
Flags: HW
LayerCount: 3
Fore
SplineSet
91 254 m 0
 91 282 113 304 141 304 c 0
 169 304 191 282 191 254 c 0
 191 226 169 204 141 204 c 0
 113 204 91 226 91 254 c 0
EndSplineSet
EndChar

StartChar: u
Encoding: 117 117 20
Width: 282
VWidth: 0
Flags: HW
LayerCount: 3
Fore
SplineSet
91 254 m 0
 91 282 113 304 141 304 c 0
 169 304 191 282 191 254 c 0
 191 226 169 204 141 204 c 0
 113 204 91 226 91 254 c 0
EndSplineSet
EndChar

StartChar: v
Encoding: 118 118 21
Width: 282
VWidth: 0
Flags: HW
LayerCount: 3
Fore
SplineSet
91 254 m 0
 91 282 113 304 141 304 c 0
 169 304 191 282 191 254 c 0
 191 226 169 204 141 204 c 0
 113 204 91 226 91 254 c 0
EndSplineSet
EndChar

StartChar: w
Encoding: 119 119 22
Width: 282
VWidth: 0
Flags: HW
LayerCount: 3
Fore
SplineSet
91 254 m 0
 91 282 113 304 141 304 c 0
 169 304 191 282 191 254 c 0
 191 226 169 204 141 204 c 0
 113 204 91 226 91 254 c 0
EndSplineSet
EndChar

StartChar: x
Encoding: 120 120 23
Width: 282
VWidth: 0
Flags: HW
LayerCount: 3
Fore
SplineSet
91 254 m 0
 91 282 113 304 141 304 c 0
 169 304 191 282 191 254 c 0
 191 226 169 204 141 204 c 0
 113 204 91 226 91 254 c 0
EndSplineSet
EndChar

StartChar: y
Encoding: 121 121 24
Width: 282
VWidth: 0
Flags: HW
LayerCount: 3
Fore
SplineSet
91 254 m 0
 91 282 113 304 141 304 c 0
 169 304 191 282 191 254 c 0
 191 226 169 204 141 204 c 0
 113 204 91 226 91 254 c 0
EndSplineSet
EndChar

StartChar: z
Encoding: 122 122 25
Width: 282
VWidth: 0
Flags: HW
LayerCount: 3
Fore
SplineSet
91 254 m 0
 91 282 113 304 141 304 c 0
 169 304 191 282 191 254 c 0
 191 226 169 204 141 204 c 0
 113 204 91 226 91 254 c 0
EndSplineSet
EndChar

StartChar: zero
Encoding: 48 48 52
Width: 282
VWidth: 0
Flags: HW
LayerCount: 3
Fore
SplineSet
91 254 m 0
 91 282 113 304 141 304 c 0
 169 304 191 282 191 254 c 0
 191 226 169 204 141 204 c 0
 113 204 91 226 91 254 c 0
EndSplineSet
EndChar

StartChar: one
Encoding: 49 49 53
Width: 282
VWidth: 0
Flags: HW
LayerCount: 3
Fore
SplineSet
91 254 m 0
 91 282 113 304 141 304 c 0
 169 304 191 282 191 254 c 0
 191 226 169 204 141 204 c 0
 113 204 91 226 91 254 c 0
EndSplineSet
EndChar

StartChar: two
Encoding: 50 50 54
Width: 282
VWidth: 0
Flags: HW
LayerCount: 3
Fore
SplineSet
91 254 m 0
 91 282 113 304 141 304 c 0
 169 304 191 282 191 254 c 0
 191 226 169 204 141 204 c 0
 113 204 91 226 91 254 c 0
EndSplineSet
EndChar

StartChar: three
Encoding: 51 51 55
Width: 282
VWidth: 0
Flags: HW
LayerCount: 3
Fore
SplineSet
91 254 m 0
 91 282 113 304 141 304 c 0
 169 304 191 282 191 254 c 0
 191 226 169 204 141 204 c 0
 113 204 91 226 91 254 c 0
EndSplineSet
EndChar

StartChar: four
Encoding: 52 52 56
Width: 282
VWidth: 0
Flags: HW
LayerCount: 3
Fore
SplineSet
91 254 m 0
 91 282 113 304 141 304 c 0
 169 304 191 282 191 254 c 0
 191 226 169 204 141 204 c 0
 113 204 91 226 91 254 c 0
EndSplineSet
EndChar

StartChar: five
Encoding: 53 53 57
Width: 282
VWidth: 0
Flags: HW
LayerCount: 3
Fore
SplineSet
91 254 m 0
 91 282 113 304 141 304 c 0
 169 304 191 282 191 254 c 0
 191 226 169 204 141 204 c 0
 113 204 91 226 91 254 c 0
EndSplineSet
EndChar

StartChar: six
Encoding: 54 54 58
Width: 282
VWidth: 0
Flags: HW
LayerCount: 3
Fore
SplineSet
91 254 m 0
 91 282 113 304 141 304 c 0
 169 304 191 282 191 254 c 0
 191 226 169 204 141 204 c 0
 113 204 91 226 91 254 c 0
EndSplineSet
EndChar

StartChar: seven
Encoding: 55 55 59
Width: 282
VWidth: 0
Flags: HW
LayerCount: 3
Fore
SplineSet
91 254 m 0
 91 282 113 304 141 304 c 0
 169 304 191 282 191 254 c 0
 191 226 169 204 141 204 c 0
 113 204 91 226 91 254 c 0
EndSplineSet
EndChar

StartChar: eight
Encoding: 56 56 60
Width: 282
VWidth: 0
Flags: HW
LayerCount: 3
Fore
SplineSet
91 254 m 0
 91 282 113 304 141 304 c 0
 169 304 191 282 191 254 c 0
 191 226 169 204 141 204 c 0
 113 204 91 226 91 254 c 0
EndSplineSet
EndChar

StartChar: nine
Encoding: 57 57 61
Width: 282
VWidth: 0
Flags: HW
LayerCount: 3
Fore
SplineSet
91 254 m 0
 91 282 113 304 141 304 c 0
 169 304 191 282 191 254 c 0
 191 226 169 204 141 204 c 0
 113 204 91 226 91 254 c 0
EndSplineSet
EndChar

